<?xml version="1.0" encoding="utf-8"?>
<!-- Generator: Adobe Illustrator 25.0.0, SVG Export Plug-In . SVG Version: 6.00 Build 0)  -->
<svg version="1.1" id="Layer_1" xmlns="http://www.w3.org/2000/svg" xmlns:xlink="http://www.w3.org/1999/xlink" x="0px" y="0px"
	 viewBox="0 0 1055.9 459.5" style="enable-background:new 0 0 1055.9 459.5;" xml:space="preserve">
<style type="text/css">
	.st0{fill:#FFFFFF;}
</style>
<g>
	<path class="st0" d="M883.6,459.5l67-95.7h-10.5c-3.9,0-7.6,1.9-9.8,5.1l-46.7,66.7l-46.7-66.7c-2.2-3.2-5.9-5.1-9.8-5.1h-10.5
		L883.6,459.5z"/>
	<path class="st0" d="M942.7,429.7h17.3l-17.2,24.6c-2.3,3.2-6,5.2-10,5.2h-11L942.7,429.7z"/>
	<path class="st0" d="M1055.9,459.5h-11c-4,0-7.7-1.9-10-5.2l-46-65.8l-19.5,27.8h-17.3l36.8-52.6L1055.9,459.5z"/>
	<path class="st0" d="M20.8,429.7h17.3L21,454.3c-2.3,3.2-6,5.2-10,5.2H0L20.8,429.7z"/>
	<path class="st0" d="M134,459.5h-11c-4,0-7.7-1.9-10-5.2l-46-65.8l-19.5,27.8H30.2L67,363.8L134,459.5z"/>
	<path class="st0" d="M790,459.4h-6.9v-88.2c0-4.1,3.4-7.5,7.5-7.5h6.9v88.2C797.5,456,794.1,459.4,790,459.4"/>
	<path class="st0" d="M675.7,363.8c-4.1,0-7.5,3.4-7.5,7.5v6.9h40.7v81.4h6.9c4.1,0,7.5-3.4,7.5-7.5v-73.9h33.2
		c4.1,0,7.5-3.4,7.5-7.5v-6.9H675.7z"/>
	<path class="st0" d="M649,396.1c-0.7-18.2-16.1-32.3-34.3-32.3h-54v0h-14.4v95.7h6.9c4.1,0,7.5-3.4,7.5-7.5v-73.8h54.2
		c10.3,0,19.1,7.9,19.7,18.2c0.5,11-8.2,20.1-19.1,20.1h-9.6h-33.3v6.9c0,4.1,3.4,7.5,7.5,7.5h25.8c15.8,0,28.7,12.9,28.7,28.7H649
		c0-13.6-6.4-25.7-16.2-33.6C642.8,419.8,649.4,408.7,649,396.1"/>
	<path class="st0" d="M225,459.5h-71.9v-5.9c0-4.1,3.3-7.4,7.4-7.4h64.7c7.4,0,13.9-5.6,14.4-13c0.5-8.1-5.9-14.9-13.9-14.9h-46.8
		c-14.8,0-28.5-11.5-29-26.2c-0.6-15.5,13-28.3,28.4-28.3h63v5.9c0,4.1-3.3,7.4-7.4,7.4h-55.1c-7.4,0-13.9,5.6-14.4,13
		c-0.5,8.1,5.9,14.9,13.9,14.9h47.5c15.4,0,27.8,12.8,27.2,28.3C252.4,448,239.8,459.5,225,459.5"/>
	<path class="st0" d="M363.1,459.5h-71.9v-5.9c0-4.1,3.3-7.4,7.4-7.4h64.7c7.4,0,13.9-5.6,14.4-13c0.5-8.1-5.9-14.9-13.9-14.9H317
		c-14.8,0-27.3-11.5-27.9-26.2c-0.6-15.5,11.9-28.3,27.2-28.3h63v5.9c0,4.1-3.3,7.4-7.4,7.4h-55.1c-7.4,0-13.9,5.6-14.4,13
		c-0.5,8.1,5.9,14.9,13.9,14.9h47.5c15.4,0,27.8,12.8,27.2,28.3C390.5,448,377.9,459.5,363.1,459.5"/>
	<path class="st0" d="M436.7,363.7c-4.1,0-7.4,3.3-7.4,7.4v5.9h71.3c4.1,0,7.4-3.3,7.4-7.4v-5.9H436.7z"/>
	<path class="st0" d="M429.3,412.3v47.1h71.3c4.1,0,7.4-3.3,7.4-7.4v-5.9h-64.6v-27.9h57.2c4.1,0,7.4-3.3,7.4-7.4v-5.9h-71.3
		C432.6,404.9,429.3,408.2,429.3,412.3"/>
	<path class="st0" d="M395.5,287.1c23-50.2,73.7-85.2,132.4-85.2c58.7,0,109.5,35,132.4,85.2h38.3
		c-24.9-70.3-92.1-120.7-170.8-120.7s-145.8,50.5-170.8,120.7H395.5z"/>
	<path class="st0" d="M528,66.8l46.4,66.2c22.6,4.9,44.2,13.3,64.3,25.1L528,0v0l0,0l0,0v0L417.3,158.1
		c20.1-11.8,41.7-20.2,64.3-25.1L528,66.8z"/>
</g>
</svg>
